<?xml version="1.0" encoding="UTF-8"?>
<svg version="1.1" xmlns="http://www.w3.org/2000/svg" width="213" height="211">
<path d="M0 0 C70.29 0 140.58 0 213 0 C213 69.63 213 139.26 213 211 C142.71 211 72.42 211 0 211 C0 141.37 0 71.74 0 0 Z " fill="#222326" transform="translate(0,0)"/>
<path d="M0 0 C1.61702728 1.28483677 1.61702728 1.28483677 3 3 C3.29631489 5.90162139 3.40968514 8.58860939 3.38818359 11.49121094 C3.39344055 12.35822632 3.39869751 13.2252417 3.40411377 14.11853027 C3.41733872 16.99066076 3.4085638 19.86223865 3.3984375 22.734375 C3.40045825 24.73114122 3.4033697 26.72790672 3.40713501 28.72467041 C3.41156235 32.91450002 3.4051168 37.10413796 3.39111328 41.29394531 C3.37406545 46.65508257 3.38383208 52.01576781 3.40183067 57.37688828 C3.4126952 61.50339127 3.40920915 65.62978798 3.4014473 69.75629425 C3.39945037 71.73218082 3.4018867 73.70807715 3.40888596 75.68395233 C3.41653932 78.45329641 3.40483993 81.22192022 3.38818359 83.99121094 C3.39425629 84.80289734 3.40032898 85.61458374 3.40658569 86.4508667 C3.31669544 94.55383058 0.51902565 100.18178067 -4.98046875 106.1328125 C-9.29145134 110.11859524 -14.07157859 113.21807429 -20.0625 113.5 C-25.83089105 112.7675059 -31.12723292 111.59962072 -35 107 C-36.74475908 101.76572275 -37.12454133 95.88406073 -35.09375 90.67578125 C-30.80763138 83.46356242 -25.05942328 79.10245825 -17 77 C-11.555 77.495 -11.555 77.495 -6 78 C-6 61.5 -6 45 -6 28 C-12.27 29.65 -18.54 31.3 -25 33 C-29.97381621 34.24121762 -34.94604567 35.4795193 -39.92822266 36.68530273 C-42.02988107 37.19474315 -44.13017067 37.70959283 -46.23046875 38.22460938 C-47.61190028 38.5602207 -48.99340795 38.89551883 -50.375 39.23046875 C-51.57898438 39.52332764 -52.78296875 39.81618652 -54.0234375 40.11791992 C-58.97871172 41.26638744 -63.99129714 42.120882 -69 43 C-68.98334541 44.23242432 -68.98334541 44.23242432 -68.96635437 45.48974609 C-68.86589881 53.25732559 -68.78990737 61.02458725 -68.74093914 68.79264832 C-68.71491693 72.7857143 -68.67965624 76.77824063 -68.62280273 80.77099609 C-68.56821611 84.62898004 -68.53852406 88.48644708 -68.52561378 92.3447876 C-68.51642129 93.81195201 -68.49847047 95.27909019 -68.47134972 96.74603271 C-68.32695192 104.88489954 -68.23576253 111.69769164 -74 118 C-80.03460444 124.24380463 -85.91013348 127.07142837 -94.625 127.4375 C-99.48963539 127.29600783 -102.30170935 126.32846159 -106 123 C-109.70250647 118.92278203 -109.62733482 115.44167546 -109.46484375 110.10546875 C-108.5383165 103.91564383 -105.46214588 100.10853982 -100.796875 96.11328125 C-94.40886369 91.69318955 -88.6237227 91.08329666 -81 92 C-79.515 92.495 -79.515 92.495 -78 93 C-78.00666183 92.10464035 -78.01332367 91.2092807 -78.02018738 90.28678894 C-78.080259 81.85540151 -78.12595428 73.42408579 -78.15543652 64.99253368 C-78.17110311 60.65760875 -78.19235934 56.3228604 -78.22631836 51.98803711 C-78.25887664 47.80591912 -78.27684553 43.62397115 -78.28463173 39.44173622 C-78.29018162 37.84489578 -78.30101906 36.24806481 -78.31719017 34.65129662 C-78.33891808 32.41730906 -78.34196896 30.18402712 -78.34057617 27.94995117 C-78.34723801 26.67754074 -78.35389984 25.40513031 -78.36076355 24.09416199 C-78 21 -78 21 -76.89665222 19.19018555 C-74.15545883 17.47003426 -71.44708331 16.81024344 -68.31298828 16.00708008 C-67.30025345 15.74307655 -67.30025345 15.74307655 -66.26705933 15.47373962 C-64.03732037 14.89538151 -61.80406032 14.33218966 -59.5703125 13.76953125 C-58.01697114 13.370994 -56.4638221 12.97170645 -54.91085815 12.57170105 C-51.65590456 11.73568199 -48.39924489 10.90679664 -45.14111328 10.08325195 C-40.96973228 9.02856601 -36.80223073 7.95942289 -32.63582039 6.88528919 C-29.42852944 6.05957345 -26.21969058 5.24001742 -23.01031113 4.42246056 C-21.47336687 4.03047029 -19.93681462 3.6369396 -18.4006691 3.24183083 C-16.25052063 2.69011278 -14.09851573 2.14634112 -11.94580078 1.60473633 C-10.72240997 1.29401688 -9.49901917 0.98329742 -8.23855591 0.66316223 C-5.31118975 0.06372263 -2.95993493 -0.37803419 0 0 Z " fill="#3D3D3F" transform="translate(158,44)"/>
<path d="M0 0 C70.29 0 140.58 0 213 0 C213 69.63 213 139.26 213 211 C212.67 211 212.34 211 212 211 C212 142.03 212 73.06 212 2 C142.7 2 73.4 2 2 2 C2 70.97 2 139.94 2 211 C1.34 211 0.68 211 0 211 C0 141.37 0 71.74 0 0 Z " fill="#121314" transform="translate(0,0)"/>
</svg>
